<svg xmlns="http://www.w3.org/2000/svg" viewBox="-196.654541 89 732.4090576 240"><path d="M-146.136 172.368l82.642-79.016h-32.383l-75.648 73.964h-1.917V93.352h-23.213v171.114h23.213v-85.57h1.917l79.767 85.57h33.834l-88.212-92.098zm210.984 70.337h-86.529v-54.249h55.44v-21.762h-55.44v-51.606h87.228V93.352h-110.44v171.114H64.848v-21.761zm338.031-73.964h-61.27v21.762h37.928v47.46c-10.363 5.804-25.855 8.938-42.047 8.938-37.694 0-66.45-29.481-66.45-68.134 0-37.461 25.388-68.16 64.533-68.16 17.177 0 33.368 4.61 47.384 18.134l16.554-17.513C386.221 97.47 367.128 89 335.703 89c-52.202 0-89.171 39.145-89.171 89.896 0 48.575 33.575 89.897 91.58 89.897 20.726 0 48.083-5.57 64.767-15.7v-84.352zm132.124 73.964h-91.606v-54.87h56.192v-21.737h-56.192v-51.01h87.254V93.352H420.21v171.114h114.792v-21.761zM148.967 93.56h-55v21.787h53.29c55.596 0 66.943 42.02 66.943 63.757 0 42.305-33.342 63.73-72.539 63.73H93.967v21.71h51.114c61.14 0 93.783-41.813 93.783-85.492 0-31.658-17.643-85.492-89.897-85.492zm-315.414 213.885c4.922-1.398 5.932-4.248 5.932-8.497 0-7.046-2.098-10.648-11.01-10.648h-24.041v40.234h25.259c8.03 0 11.191-3.99 11.191-11.244 0-5-1.01-8.86-7.331-9.845zm-23.938-15.103h16.295c5.518 0 8.109.596 8.109 6.036 0 6.296-2.202 7.54-8.653 7.54h-15.544l-.207-.027v-13.549zm17.228 32.28h-17.02l-.208.026v-14.69h17.85c7.072-.103 8.03 2.591 8.03 7.902 0 6.166-2.823 6.762-8.652 6.762zm65.466-7.254c0 7.59-3.86 7.59-13.42 7.59-11.554 0-13.393-1.036-13.393-7.59v-29.042h-5.363v29.042c0 11.425 8.42 11.632 18.782 11.632 11.192 0 18.783-.829 18.783-11.632v-29.042h-5.389v29.042zm23.523-17.643l.002-.045-.002-.032v.077zm18.55 6.27c-8.86-.208-13.161.518-13.161-7.254 0-5.596 1.45-6.71 11.943-6.71 10.052 0 11.632.26 11.891 7.306h5.363c.57-10.985-6.71-11.347-17.073-11.347-11.666 0-17.494.984-17.511 11.69.017 10.637 8.04 9.683 17.382 10.33 8.679.596 12.72-.906 12.72 6.995 0 7.902-2.876 7.902-12.953 7.902s-11.97 0-11.97-8.886h-5.284c-1.01 11.71 5.389 12.953 17.332 12.953 11.942 0 18.264-.388 18.264-11.788 0-10.932-5.7-10.647-16.943-11.191zm34.766 22.668h5.389v-40.337h-5.389v40.337zm60.959-3.497h-.104l-26.58-36.84h-8.86v40.337h5.389v-36.58h.13l26.631 36.58h8.782v-40.337h-5.388v36.84zm23.55 3.497h30.491v-4.041H59.045v-14.767H83.06v-3.783H59.045v-13.704h25.103v-4.042H53.656v40.337zm64.921-22.668c-8.86-.208-13.16.518-13.16-7.254 0-5.596 1.45-6.71 11.943-6.71 10.052 0 11.632.26 11.891 7.306h5.363c.57-10.985-6.71-11.347-17.073-11.347-11.684 0-17.513.984-17.513 11.735l.052-.077c0 10.673 8.031 9.715 17.383 10.362 8.68.596 12.72-.906 12.72 6.995 0 7.902-2.875 7.902-12.953 7.902s-11.968 0-11.968-8.886H99.9c-1.01 11.71 5.363 12.953 17.331 12.953s18.29-.388 18.29-11.788c0-10.932-5.699-10.647-16.943-11.191zm51.037 0c-8.86-.208-13.16.518-13.16-7.254 0-5.596 1.45-6.71 11.942-6.71 10.052 0 11.632.26 11.891 7.306h5.389c.57-10.985-6.71-11.347-17.073-11.347-11.683 0-17.512.984-17.512 11.735l.051-.077c0 10.673 8.032 9.715 17.384 10.362 8.679.596 12.72-.906 12.72 6.995 0 7.902-2.876 7.902-12.953 7.902s-11.97 0-11.97-8.886h-5.362c-1.01 11.71 5.389 12.953 17.332 12.953s18.264-.388 18.264-11.788c0-10.932-5.674-10.647-16.943-11.191zm82.176 0c-8.86-.208-13.16.518-13.16-7.254 0-5.596 1.45-6.71 11.942-6.71 10.052 0 11.632.26 11.892 7.306h5.388c.57-10.985-6.71-11.347-17.072-11.347-11.684 0-17.513.984-17.513 11.735l.026-.077c0 10.673 8.03 9.715 17.383 10.362 8.679.596 12.72-.906 12.72 6.995 0 7.902-2.902 7.902-12.953 7.902-10.052 0-11.943 0-11.943-8.886h-5.389c-1.01 11.71 5.363 12.953 17.332 12.953s18.29-.388 18.29-11.788c0-10.932-5.7-10.647-16.943-11.191zm65.57 12.098c0 5.751-2.669 6.788-11.27 6.788h-6.373c-8.99 0-9.43-4.145-9.43-13.342V300.45c0-7.384 3.912-8.498 15.052-8.498h3.031c6.943 0 8.342 2.125 8.342 7.772v1.218h5.363v-1.295c0-7.954-3.031-11.606-12.953-11.606h-4.43c-11.503 0-19.793 1.295-19.793 12.694v15.544c0 8.057 5.13 12.694 13.782 12.694h7.617c9.507 0 16.45-1.114 16.45-10.362v-3.757h-5.388v3.238zm55.648-12.02h-27.773v-17.747h-5.362v40.337h5.362v-18.549h27.773v18.55h5.362v-40.338h-5.362v17.746zm45.414-18.083h-6.399c-11.943.103-15.544 3.445-15.544 13.549v14.352c0 9.404 4.171 12.954 15.544 12.954h6.399c11.503 0 15.544-3.42 15.544-12.954V301.54c0-10.104-3.705-13.55-15.544-13.55zm10.052 27.823c0 8.006-3.083 9.042-10.052 9.042h-6.321c-6.943-.052-10.052-1.036-10.052-9.042v-14.352c0-7.85 2.072-9.508 10.052-9.508l-.078.078h6.399c7.953 0 10.052 1.736 10.052 9.508v14.274zm43.73-27.823h-6.398c-11.943.103-15.544 3.445-15.544 13.549v14.352c0 9.404 4.17 12.954 15.544 12.954h6.398c11.503 0 15.545-3.42 15.545-12.954V301.54c0-10.104-3.705-13.55-15.545-13.55zm10.052 27.823c0 8.006-3.083 9.042-10.052 9.042h-6.399c-6.943-.052-10.051-1.036-10.051-9.042v-14.352c0-7.85 2.072-9.508 10.051-9.508v.078h6.4c7.953 0 10.051 1.736 10.051 9.508v14.274zm29.353 8.809v-36.296h-5.389v40.337h29.534v-4.041H511.61z" fill="#10191c"/><path fill="#cf0540" d="M88.397 185.762l-42.461-7.928 42.461-7.927 7.928-42.435 7.927 42.435 42.435 7.927-42.435 7.928-7.927 42.435z"/></svg>