<svg id="Calque_1" data-name="Calque 1" xmlns="http://www.w3.org/2000/svg" viewBox="0 0 1550.19 683.89"><defs><style>.cls-1{fill:#dcfdfa;opacity:0.19;}.cls-1,.cls-2,.cls-3{fill-rule:evenodd;isolation:isolate;}.cls-2,.cls-3{fill:#86f1e6;}.cls-2{opacity:0.1;}.cls-3{opacity:0.15;}</style></defs><path id="Tracé_712" data-name="Tracé 712" class="cls-1" d="M1929.14,955.74H-3901.38S-3352,536.9-2900.58,530.47c539.17-7.92,781.41,302,1298.94,302s864.35-758,1822.47-758c1023,0,1708.27,881.24,1708.27,881.24"/><path id="Tracé_712-2" data-name="Tracé 712" class="cls-2" d="M3040.31,705.87H-953.92s376.36-333.84,685.61-339c369.36-6.32,535.3,240.7,889.84,240.7S1213.66,3.45,1870,3.45c700.81,0,1170.26,702.39,1170.26,702.39"/><path id="Tracé_712-3" data-name="Tracé 712" class="cls-3" d="M3455.23,699.06H-629.13S-244.27,354,72,348.74c377.69-6.53,547.39,248.78,909.92,248.78S1587.36-26.9,2258.54-26.9C2975.16-26.9,3455.2,699,3455.2,699"/></svg>