<svg id="Calque_1" data-name="Calque 1" xmlns="http://www.w3.org/2000/svg" viewBox="0 0 200 226.24"><defs><style>.cls-1,.cls-4,.cls-8{fill:#86f1e6;}.cls-1,.cls-3,.cls-6,.cls-8{fill-rule:evenodd;}.cls-2,.cls-6{fill:#b1f8f0;}.cls-2{stroke:#dcfdfa;stroke-width:0.6px;}.cls-3,.cls-5{fill:#dcfdfa;}.cls-10,.cls-7,.cls-9{fill:none;stroke:#86f1e6;}.cls-7{stroke-width:0.79px;}.cls-8{opacity:0.65;}.cls-8,.cls-9{isolation:isolate;}.cls-9{stroke-width:1.01px;opacity:0.2;}.cls-10{stroke-miterlimit:10;stroke-width:0.64px;}</style></defs><path class="cls-1" d="M139.3,9.19H62.1V74.66h77.14V9.19Z"/><path class="cls-2" d="M144.66,9.19H62.1V74.66h82.5V9.19Z"/><path class="cls-3" d="M137.4,13.84H65.14v56H137.4v-56Z"/><path class="cls-4" d="M68.83,34.21V34l2-1.25.24.42-1.61,1,1.61,1-.24.41Z"/><path class="cls-4" d="M71.28,32.48h.89v1.14h0a.6.6,0,0,1,.3-.24.87.87,0,0,1,.41-.06.45.45,0,0,1,.3.06.31.31,0,0,1,.24.12,1.46,1.46,0,0,1,.18.29.89.89,0,0,1,.06.42v1.37h-.6V34.27a.51.51,0,0,0-.12-.36.45.45,0,0,0-.29-.12c-.12,0-.18.06-.3.12s-.18.12-.18.24v1.37h-.6V33h-.29Z"/><path class="cls-4" d="M74.37,35.05H75V33.14l-.6.42-.24-.36,1-.72h.35v2.57h.66v.47H74.37Z"/><path class="cls-4" d="M76.93,35.4,76.7,35l1.6-1-1.6-1,.23-.42,2,1.25v.24Z"/><path class="cls-4" d="M80.93,34.21h-1v1.25h-.59v-3h.59v1.2h1v-1.2h.59v3h-.59Z"/><path class="cls-4" d="M84.08,35.28,84,35.4c-.06.06-.12.06-.23.12s-.18.06-.24.06h-.3a1.17,1.17,0,0,1-.48-.06c-.12-.06-.29-.12-.35-.24a1.22,1.22,0,0,1-.24-.35,1.17,1.17,0,0,1-.06-.48,1.13,1.13,0,0,1,.12-.48,1.22,1.22,0,0,1,.24-.35,1.1,1.1,0,0,1,.35-.24,1.17,1.17,0,0,1,.48-.06.76.76,0,0,1,.36.06c.12.06.23.06.29.18a.62.62,0,0,1,.24.29,1.13,1.13,0,0,1,.12.48,1.17,1.17,0,0,1-.06.42H82.65c0,.12,0,.18.06.24s.06.12.12.17a.22.22,0,0,0,.18.06h.24a.89.89,0,0,0,.42-.06c.12,0,.17-.11.29-.11Zm-1-1.54a.53.53,0,0,0-.24,0c-.06,0-.12.06-.18.12l-.12.12a.6.6,0,0,0-.06.18h1.08a.85.85,0,0,0-.12-.36C83.43,33.74,83.31,33.74,83.13,33.74Z"/><path class="cls-4" d="M84.74,32.48h1v2a1,1,0,0,0,.06.48.31.31,0,0,0,.24.12h.24c.06,0,.12-.06.18-.06l.23.41a.17.17,0,0,1-.11.06.6.6,0,0,1-.18.06c-.06,0-.12.06-.18.06h-.24a.63.63,0,0,1-.6-.24.87.87,0,0,1-.17-.59V33h-.42Z"/><path class="cls-4" d="M87.36,32.48h1v2a1,1,0,0,0,.06.48.31.31,0,0,0,.24.12h.24c.06,0,.12-.06.18-.06l.24.41a.19.19,0,0,1-.12.06c-.06,0-.12.06-.18.06s-.12.06-.18.06h-.24c-.3,0-.48-.06-.59-.24a.87.87,0,0,1-.18-.59V33h-.36v-.48Z"/><path class="cls-4" d="M89.74,34.39a1.17,1.17,0,0,1,.06-.48,1.22,1.22,0,0,1,.24-.35,1.26,1.26,0,0,1,.36-.24,1.14,1.14,0,0,1,.47-.06,1.17,1.17,0,0,1,.48.06,1.26,1.26,0,0,1,.36.24,1.22,1.22,0,0,1,.24.35,2,2,0,0,1,0,1,1.1,1.1,0,0,1-.24.35,1.26,1.26,0,0,1-.36.24,1.17,1.17,0,0,1-.48.06,1.14,1.14,0,0,1-.47-.06,1.26,1.26,0,0,1-.36-.24,1.1,1.1,0,0,1-.24-.35A1.17,1.17,0,0,1,89.74,34.39Zm.54,0c0,.12,0,.18.06.24a.45.45,0,0,0,.12.24c.06.06.12.12.18.12s.11.06.23.06a.54.54,0,0,0,.42-.18.73.73,0,0,0,.18-.54,1.13,1.13,0,0,0-.12-.48.57.57,0,0,0-.42-.17c-.06,0-.18,0-.23.06s-.12,0-.18.11a.31.31,0,0,0-.12.24C90.34,34.21,90.28,34.27,90.28,34.39Z"/><path class="cls-4" d="M95.52,34.15v.36h0l.06-.36.24-.83h.42l.23.83.06.36h0v-.36l.12-1.67h.54l-.3,3h-.48l-.29-1L96,34.15h0l-.12.42-.36,1H95l-.29-3h.59Z"/><path class="cls-4" d="M97.55,34.39a1.17,1.17,0,0,1,.06-.48,1,1,0,0,1,.23-.35,1.26,1.26,0,0,1,.36-.24,1.17,1.17,0,0,1,.48-.06,1.12,1.12,0,0,1,.47.06,1.26,1.26,0,0,1,.36.24,1.22,1.22,0,0,1,.24.35,2,2,0,0,1,0,1,1.1,1.1,0,0,1-.24.35,1.26,1.26,0,0,1-.36.24,1.12,1.12,0,0,1-.47.06,1.17,1.17,0,0,1-.48-.06,1.26,1.26,0,0,1-.36-.24.92.92,0,0,1-.23-.35A1.17,1.17,0,0,1,97.55,34.39Zm.59,0c0,.12,0,.18.06.24s.06.18.12.24.12.12.18.12a.36.36,0,0,0,.24.06.52.52,0,0,0,.41-.18.73.73,0,0,0,.18-.54,1.13,1.13,0,0,0-.12-.48.55.55,0,0,0-.41-.17.36.36,0,0,0-.24.06.3.3,0,0,0-.18.11.31.31,0,0,0-.12.24A.33.33,0,0,0,98.14,34.39Z"/><path class="cls-4" d="M100.17,35.05h.53v-1.2h-.53v-.47h1l.06.3h0a.6.6,0,0,1,.3-.24.86.86,0,0,1,.35-.12.54.54,0,0,1,.42.18.94.94,0,0,1,.18.65h-.54c0-.12,0-.18-.06-.24s0-.06-.11-.06a.45.45,0,0,0-.3.06l-.18.18v1h1v.47h-2v-.47Z"/><path class="cls-4" d="M103,32.48h1v2A1,1,0,0,0,104,35a.31.31,0,0,0,.24.12h.24s.11-.06.17-.06l.24.41a.19.19,0,0,1-.12.06c-.06,0-.12.06-.18.06s-.11.06-.17.06h-.24a.63.63,0,0,1-.6-.24.87.87,0,0,1-.18-.59V33h-.35v-.48Z"/><path class="cls-4" d="M106.54,32.48h.89v1.91a2.46,2.46,0,0,0,.06.66v.06h.3v.47h-.71l-.06-.3h0a.13.13,0,0,1-.12.12c-.06.06-.12.06-.18.12a.22.22,0,0,1-.18.06h-.24a.76.76,0,0,1-.36-.06,1.46,1.46,0,0,1-.29-.18.79.79,0,0,1-.24-.35,1.32,1.32,0,0,1-.06-.48,1.17,1.17,0,0,1,.06-.48,1.1,1.1,0,0,1,.24-.35,1.37,1.37,0,0,1,.35-.24,1.17,1.17,0,0,1,.48-.06h.24a.22.22,0,0,1,.18.06V33h-.36Zm-.12,2.63a.54.54,0,0,0,.3-.06.83.83,0,0,0,.18-.24v-.9a.22.22,0,0,0-.18-.06h-.24a.36.36,0,0,0-.24.06c-.06.06-.12.06-.18.12a.31.31,0,0,0-.12.24.76.76,0,0,0,0,.36,1.13,1.13,0,0,0,.11.48C106.12,35.05,106.24,35.11,106.42,35.11Z"/><path class="cls-4" d="M108,34.21V34l2-1.25.23.42-1.6,1,1.6,1-.23.41Z"/><path class="cls-4" d="M112.32,32.42l.42.18-1.55,3.52-.42-.18Z"/><path class="cls-4" d="M113,32.48h.9v1.14h0a.62.62,0,0,1,.29-.24.89.89,0,0,1,.42-.06.45.45,0,0,1,.3.06c.06.06.18.06.24.12a1.46,1.46,0,0,1,.18.29.89.89,0,0,1,.06.42v1.37h-.54V34.27a.51.51,0,0,0-.12-.36.46.46,0,0,0-.3-.12c-.12,0-.18.06-.29.12s-.18.12-.18.24v1.37h-.54V33h-.3v-.48Z"/><path class="cls-4" d="M116.13,35.05h.66V33.14l-.6.42L116,33.2l1-.78h.35V35H118v.47h-1.85v-.41Z"/><path class="cls-4" d="M118.69,35.4l-.24-.41,1.61-1-1.61-1,.24-.42,2,1.25v.24Z"/><rect class="cls-5" x="139.28" y="8.91" width="5.54" height="65.41"/><path class="cls-6" d="M144.13,66l-.84-7.62s8.4-3.1,6-7.69c-1.07-2.08-4.94-.3-5.48,1.19l-1.07-8.63L127.87,45c-1.91,5.42-.42,15-.42,15,1.49.77,8.58.23,8.58.23L135.85,66"/><path class="cls-1" d="M136.09,62l4-2.74-4,.89Z"/><path class="cls-1" d="M132.45,54.76h-2l1.67-4Z"/><path class="cls-1" d="M134,51.84a1,1,0,1,1,.78,1.14,1,1,0,0,1-.78-1.14"/><path class="cls-1" d="M128.82,51.84a1,1,0,0,1,1.13-.77,1,1,0,1,1-.36,1.91,1,1,0,0,1-.77-1.14"/><path class="cls-1" d="M132.16,56.91a2.18,2.18,0,0,0,2-1Z"/><path class="cls-7" d="M132.16,56.91a2.18,2.18,0,0,0,2-1"/><path class="cls-6" d="M118.87,197.49h19.66l-.84-12.63L132,187.72l.06,4.41S122.27,193.68,118.87,197.49Zm30.2,0h13.47l-1.37-5.42-.9-.89-5.42-3.82.06,4.95A7.7,7.7,0,0,0,149.07,197.49Z"/><path class="cls-3" d="M154.91,192.31l-.6-4.95,5.66-1.72,1.2,6.37Zm-22.81-.18-.06-4.41,5.65-1.73.48,5.84Z"/><path class="cls-1" d="M143.77,101.7h7L162,185.28h1l.54,5.12h-15l-.54-5.12h.89L142.4,154l-.83,31.4h.83v4.94h-15V185.4h.77l-1.43-83.7h17Z"/><path class="cls-6" d="M142,168.54l-5.66-52.18,6.26,40.44Z"/><path class="cls-6" d="M101.12,72.4a12.4,12.4,0,0,1-2-1.2c-1.72-1.37-2.32-2.56-3.57-3.81C94,65.78,92,64.53,91.35,63.76a.57.57,0,0,1,.06-.78l.12-.12a.56.56,0,0,1,.71,0L96.65,66l.12-.24L91.65,60.9a.56.56,0,0,1,.06-.78l.24-.23a.48.48,0,0,1,.71.06l5.42,4.76.18-.18c.06-.06-4.23-4.76-5.42-6.25A.57.57,0,0,1,93,57.5l.36-.24a.56.56,0,0,1,.71.06l5.84,6.14.12-.18c.06-.06-2.92-4.23-3.87-5.6a.53.53,0,0,1,.17-.77l.24-.12a.57.57,0,0,1,.72.18l4.94,6.43a3.8,3.8,0,0,0,.72.54c.53-.72.29-2.62.71-3.58.54-1.13,2.8-2.68,1.85-.35s-.06,3.87.12,5.18a21.34,21.34,0,0,1,.18,2.56l-.12,1.73Zm37-2.57c-5.6.36-4-3.33-4-3.33a19.24,19.24,0,0,1,5.54-1h5.9S143.71,69.54,138.11,69.83Zm14.18,42-4.47-3.63L158.66,93l-3.93-8.46,9.59-4.29s5.48,8.28,5.36,12.87C169.5,98.55,152.29,111.83,152.29,111.83Z"/><path class="cls-3" d="M125.66,101.58c-1.49.06-3.16-.65-2.8-2.56L125,87.94c-1.85,1.85-7,6.38-12.16,5C106.48,91,97.66,74.6,97.66,74.6l10-6.73,7.69,10.07L126.56,70c1.48-1.78,3.51-2.26,7.56-3.45,0,0,.06-.06-.06.36a1,1,0,0,1-.06.35.9.9,0,0,0-.06.48c0,.36,0,.24.18.65a2,2,0,0,0,.72.84,4.82,4.82,0,0,0,1.78.65,13.43,13.43,0,0,0,3.1-.18,8.17,8.17,0,0,0,4-1.9,7.68,7.68,0,0,0,1.37-1.55c.24-.42-.18-.66.48-.6a29.85,29.85,0,0,1,6.85,1.43c6.85,3.22,12.75,12.75,12.75,12.75s4.7,7.75,4.4,13.17c-.47,8.51-15.19,19.36-15.19,19.36l-7.92-7.21,2.68-3.58Z"/><path class="cls-8" d="M122.8,89.91l3.64-7.33-1.37,5.36Z"/><path class="cls-9" d="M148.77,79.78l7.57,11.56-6.25,8.93"/><path class="cls-1" d="M141.21,51.9l2.14.54a6.75,6.75,0,0,1,3.76-2.62c.59-2.74,1.37-10-7.33-11.08C129.47,37.37,127.87,45,127.87,45l13.28-.17V51.9Z"/><path class="cls-10" d="M47.52,134.49s3.94,2.61,4.39,7.13"/><path class="cls-6" d="M47.77,153.46h-12a4.7,4.7,0,0,1-4.71-4.71v-3.18a4.71,4.71,0,0,1,4.71-4.72H66a4.71,4.71,0,0,1,4.71,4.72v3.18A4.7,4.7,0,0,1,66,153.46H54.65V163H47.77ZM49.55,134a2.36,2.36,0,1,1-2.35-2.35A2.3,2.3,0,0,1,49.55,134Z"/><path class="cls-3" d="M47.77,163h6.88v-9.49H47.77Z"/><path class="cls-6" d="M47.77,159.89l6.88-2.29v-4.2H47.77Z"/><path class="cls-1" d="M35.8,153.46h0a4.7,4.7,0,0,1-4.71-4.71v-3.18a4.71,4.71,0,1,1,9.42,0v3.18a4.7,4.7,0,0,1-4.71,4.71"/><path class="cls-1" d="M43.19,147.16a3.63,3.63,0,1,0,3.63-3.63,3.63,3.63,0,0,0-3.63,3.63"/><path class="cls-3" d="M45.61,146.65a1.66,1.66,0,0,0,3.31,0,1.66,1.66,0,1,0-3.31,0"/><path class="cls-1" d="M60.89,147.16a3.63,3.63,0,1,0,3.62-3.63,3.63,3.63,0,0,0-3.62,3.63"/><path class="cls-3" d="M63.3,146.65A1.66,1.66,0,1,0,65,145a1.69,1.69,0,0,0-1.66,1.66"/><path class="cls-1" d="M54.84,144.67l3.24,2.49-3.24,2.48"/><path class="cls-6" d="M58.47,171.22H56.3v-7.64a2,2,0,0,0-2-2H47.58a2,2,0,0,0-2,2V171H43.63a1.21,1.21,0,0,0-1.21,1.21v24.83a1.21,1.21,0,0,0,1.21,1.21h3.89a1.21,1.21,0,0,0,1.21-1.21,1.26,1.26,0,0,0-1.21-1.21H44.91v-5.41a3.37,3.37,0,0,1,2.61-1.78c2.35,0,4.26,3.75,4.26,8.4s-1.91,8.4-4.26,8.4c-2.17,0-4-3.12-4.21-7.19a1.16,1.16,0,0,1-.82-1.15V183.19c-2.23,3.12-3.63,8.15-3.63,13.94,0,9.43,3.88,17.13,8.72,17.13h7.07c4.83,0,8.72-7.64,8.72-17.13,0-5.73-1.4-10.76-3.63-13.88V172.5A1.27,1.27,0,0,0,58.47,171.22Zm-2.17,3.89v-1.47h1v7.13a5.09,5.09,0,0,0-2.68-.83H47.52a4.92,4.92,0,0,0-2.61.77v-7.32h.7V175a2,2,0,0,0,2,2h6.69A1.91,1.91,0,0,0,56.3,175.11Z"/><path class="cls-1" d="M43.25,198.15a.74.74,0,0,0,.38.07h3.89A1.21,1.21,0,0,0,48.73,197a1.26,1.26,0,0,0-1.21-1.21H44.91v-5.35a3.22,3.22,0,0,1,2.67-1.78c2.36,0,4.26,3.75,4.26,8.4s-1.9,8.4-4.26,8.4-4-3.24-4.33-7.32Z"/><path class="cls-1" d="M45.48,169.38H56.24v-3.7H45.48Z"/><path class="cls-1" d="M57.32,180.77c-.06,0-.06-.06-.13-.06v-7h-.95v-2.42h2.23a1.21,1.21,0,0,1,1.21,1.21v10.56c-.07-.06-.13-.19-.2-.25a.34.34,0,0,1-.12-.19l-.07-.07c2.49,3.06,4.08,8.41,4.08,14.52,0,9.42-3.89,17.13-8.72,17.13H47.9c4.65-.39,8.4-7.9,8.4-17.13,0-9.42-3.88-17.06-8.72-17.13h7.07a4.6,4.6,0,0,1,2.67.83Zm1.46,1.15.2.19c-.07,0-.13-.06-.2-.19ZM44.84,195.8h2.61A1.21,1.21,0,0,1,48.66,197a1.26,1.26,0,0,1-1.21,1.21H43.57A1.21,1.21,0,0,1,42.36,197V172.18A1.21,1.21,0,0,1,43.57,171h3.88a1.21,1.21,0,0,1,0,2.42H44.84Z"/></svg>